<svg width="45" height="45" viewBox="0 0 45 45" fill="none" xmlns="http://www.w3.org/2000/svg">
<path d="M5.625 28.1254V31.5C5.625 33.6002 5.625 34.6496 6.03373 35.4517C6.39325 36.1573 6.96651 36.7321 7.67212 37.0917C8.4735 37.5 9.52311 37.5 11.6192 37.5H39.3754M5.625 28.1254V9.375M5.625 28.1254L12.8501 22.1045L12.8561 22.0997C14.1631 21.0105 14.8179 20.4649 15.5279 20.2432C16.3666 19.9814 17.2701 20.0228 18.0817 20.3595C18.7697 20.6449 19.373 21.2482 20.5796 22.4548L20.5917 22.4669C21.817 23.6922 22.4313 24.3065 23.1303 24.5913C23.9575 24.9283 24.8785 24.9573 25.7263 24.6761C26.4451 24.4376 27.1016 23.8642 28.4143 22.7156L39.3749 13.125" stroke="white" stroke-width="2" stroke-linecap="round" stroke-linejoin="round"/>
</svg>
