<svg width="45" height="45" viewBox="0 0 45 45" fill="none" xmlns="http://www.w3.org/2000/svg">
<path d="M17.1497 17.013C17.4699 16.0262 18.0565 15.1481 18.8452 14.474C19.6339 13.8 20.5946 13.3571 21.6193 13.1945C22.6439 13.032 23.6929 13.1557 24.6515 13.5526C25.6101 13.9494 26.4402 14.6039 27.0502 15.4431C27.6601 16.2823 28.0254 17.2735 28.1069 18.3078C28.1885 19.3421 27.9822 20.379 27.5113 21.3034C27.0404 22.2278 26.3238 23.0034 25.4393 23.5455C24.5547 24.0876 23.5375 24.3746 22.5 24.3746V26.2504M22.5 39.375C13.1802 39.375 5.625 31.8198 5.625 22.5C5.625 13.1802 13.1802 5.625 22.5 5.625C31.8198 5.625 39.375 13.1802 39.375 22.5C39.375 31.8198 31.8198 39.375 22.5 39.375ZM22.5934 31.875V32.0625L22.4066 32.0629V31.875H22.5934Z" stroke="white" stroke-width="2" stroke-linecap="round" stroke-linejoin="round"/>
</svg>
