<svg width="45" height="45" viewBox="0 0 45 45" fill="none" xmlns="http://www.w3.org/2000/svg">
<path d="M5.625 22.5H15M5.625 22.5C5.625 31.8198 13.1802 39.375 22.5 39.375M5.625 22.5C5.625 13.1802 13.1802 5.625 22.5 5.625M15 22.5H30M15 22.5C15 31.8198 18.3579 39.375 22.5 39.375M15 22.5C15 13.1802 18.3579 5.625 22.5 5.625M30 22.5H39.375M30 22.5C30 13.1802 26.6421 5.625 22.5 5.625M30 22.5C30 31.8198 26.6421 39.375 22.5 39.375M39.375 22.5C39.375 13.1802 31.8198 5.625 22.5 5.625M39.375 22.5C39.375 31.8198 31.8198 39.375 22.5 39.375" stroke="white" stroke-width="2" stroke-linecap="round" stroke-linejoin="round"/>
</svg>
