<svg width="45" height="45" viewBox="0 0 45 45" fill="none" xmlns="http://www.w3.org/2000/svg">
<path d="M22.5 28.125L28.125 22.5M28.125 22.5L22.5 16.875M28.125 22.5H7.5M16.875 13.5911V13.5004C16.875 11.4002 16.875 10.3493 17.2837 9.54712C17.6433 8.84151 18.2165 8.26825 18.9221 7.90873C19.7243 7.5 20.7752 7.5 22.8754 7.5H31.5004C33.6006 7.5 34.6492 7.5 35.4514 7.90873C36.157 8.26825 36.7321 8.84151 37.0917 9.54712C37.5 10.3485 37.5 11.3981 37.5 13.4942V31.5067C37.5 33.6028 37.5 34.6509 37.0917 35.4523C36.7321 36.1579 36.157 36.7321 35.4514 37.0917C34.65 37.5 33.6019 37.5 31.5058 37.5H22.8692C20.7731 37.5 19.7235 37.5 18.9221 37.0917C18.2165 36.7321 17.6433 36.1573 17.2837 35.4517C16.875 34.6496 16.875 33.6002 16.875 31.5V31.4062" stroke="white" stroke-width="2" stroke-linecap="round" stroke-linejoin="round"/>
</svg>
