<svg width="45" height="45" viewBox="0 0 45 45" fill="none" xmlns="http://www.w3.org/2000/svg">
<path d="M38.1561 16.7305L37.4695 16.3485C37.3629 16.2892 37.3104 16.2594 37.2589 16.2286C36.7469 15.9218 36.3153 15.4981 36.0004 14.9911C35.9687 14.94 35.9388 14.8865 35.8777 14.7808C35.8167 14.6752 35.7858 14.6217 35.7575 14.5687C35.4749 14.0412 35.3221 13.4534 35.313 12.8551C35.3121 12.795 35.3123 12.7335 35.3143 12.6113L35.3278 11.814C35.3492 10.538 35.36 9.898 35.1807 9.32366C35.0214 8.8135 34.7549 8.34361 34.3991 7.94485C33.9969 7.49409 33.4401 7.17252 32.3254 6.53018L31.3995 5.99663C30.288 5.35609 29.732 5.0357 29.1419 4.91356C28.6198 4.80551 28.081 4.81052 27.5608 4.9273C26.9737 5.0591 26.4246 5.38783 25.3273 6.04492L25.321 6.0479L24.6576 6.44514C24.5527 6.50795 24.4996 6.53961 24.447 6.56884C23.9253 6.85894 23.3428 7.01935 22.7461 7.0385C22.6859 7.04043 22.6248 7.04043 22.5024 7.04043C22.3809 7.04043 22.3171 7.04043 22.2571 7.0385C21.6591 7.01927 21.0754 6.85799 20.5528 6.56669C20.5002 6.53733 20.4481 6.50542 20.3429 6.44231L19.6753 6.04149C18.5704 5.37818 18.0171 5.04603 17.4268 4.91356C16.9044 4.79637 16.3638 4.79313 15.8398 4.90258C15.2482 5.02616 14.6921 5.34892 13.5798 5.99444L13.5749 5.99663L12.6605 6.52732L12.6504 6.53351C11.5482 7.17322 10.9958 7.49384 10.5969 7.94276C10.243 8.34112 9.97846 8.81027 9.82012 9.31908C9.64114 9.89421 9.65068 10.5356 9.67225 11.8176L9.68565 12.6138C9.68767 12.7344 9.69119 12.7943 9.69031 12.8536C9.68144 13.4531 9.52661 14.0421 9.24327 14.5705C9.21525 14.6228 9.18506 14.6751 9.12476 14.7794C9.06442 14.8839 9.0352 14.9359 9.00391 14.9863C8.68756 15.496 8.25401 15.9222 7.73875 16.2295C7.68778 16.2599 7.63407 16.2891 7.52853 16.3476L6.85059 16.7233C5.72266 17.3483 5.15882 17.6612 4.74854 18.1063C4.38559 18.5001 4.11141 18.9672 3.94404 19.4759C3.75485 20.051 3.75501 20.6958 3.75794 21.9854L3.76034 23.0394C3.76325 24.3203 3.76724 24.9604 3.95685 25.5315C4.1246 26.0368 4.39678 26.5012 4.7577 26.8926C5.16565 27.3351 5.72388 27.6459 6.84327 28.2687L7.51516 28.6424C7.6295 28.7061 7.68704 28.7375 7.74219 28.7707C8.25277 29.0781 8.68292 29.5032 8.99659 30.01C9.03048 30.0648 9.06301 30.1216 9.12805 30.2352C9.1923 30.3475 9.22517 30.4036 9.25488 30.4598C9.52989 30.9805 9.67714 31.559 9.68717 32.1478C9.68826 32.2114 9.68733 32.2757 9.68515 32.405L9.67225 33.1691C9.65053 34.4555 9.64107 35.0995 9.8211 35.6762C9.98037 36.1864 10.2466 36.6562 10.6024 37.055C11.0047 37.5058 11.5623 37.8271 12.677 38.4695L13.6027 39.0029C14.7143 39.6435 15.2699 39.9635 15.86 40.0856C16.3821 40.1937 16.9212 40.1895 17.4414 40.0727C18.0294 39.9407 18.5803 39.6108 19.6808 38.9519L20.3442 38.5546C20.4492 38.4918 20.5023 38.4603 20.5549 38.431C21.0767 38.1409 21.6586 37.9797 22.2553 37.9605C22.3154 37.9586 22.3766 37.9586 22.4989 37.9586C22.6215 37.9586 22.6826 37.9586 22.7429 37.9605C23.3408 37.9798 23.9263 38.1416 24.4489 38.4329C24.4948 38.4585 24.5409 38.4862 24.6218 38.5348L25.3271 38.9582C26.4321 39.6216 26.9842 39.9527 27.5746 40.0852C28.0969 40.2024 28.638 40.2072 29.162 40.0977C29.7535 39.9742 30.3107 39.6508 31.4223 39.0056L32.3504 38.467C33.4533 37.8268 34.0064 37.5059 34.4053 37.0568C34.7593 36.6585 35.0242 36.1895 35.1825 35.6807C35.3602 35.1098 35.3495 34.4733 35.3282 33.2098L35.3143 32.3858C35.3123 32.2652 35.3121 32.2052 35.313 32.1459C35.3218 31.5464 35.4741 30.957 35.7575 30.4286C35.7854 30.3764 35.8159 30.3237 35.876 30.2197C35.9363 30.1152 35.9675 30.0632 35.9988 30.0127C36.3152 29.503 36.7491 29.0764 37.2644 28.7692C37.3148 28.7391 37.3666 28.7104 37.4696 28.6533L37.4732 28.6517L38.1511 28.276C39.279 27.6509 39.844 27.3378 40.2542 26.8926C40.6172 26.4988 40.891 26.0324 41.0584 25.5236C41.2464 24.952 41.245 24.3109 41.2421 23.0364L41.2396 21.9598C41.2367 20.6788 41.2352 20.0389 41.0455 19.4677C40.8778 18.9624 40.6041 18.498 40.2432 18.1066C39.8356 17.6646 39.2766 17.3536 38.1594 16.7321L38.1561 16.7305Z" stroke="white" stroke-width="2" stroke-linecap="round" stroke-linejoin="round"/>
<path d="M15.0006 22.4999C15.0006 26.6421 18.3585 29.9999 22.5006 29.9999C26.6428 29.9999 30.0006 26.6421 30.0006 22.4999C30.0006 18.3578 26.6428 14.9999 22.5006 14.9999C18.3585 14.9999 15.0006 18.3578 15.0006 22.4999Z" stroke="white" stroke-width="2" stroke-linecap="round" stroke-linejoin="round"/>
</svg>
